/* XPM */
static char * threadscope_xpm[] = {
"31 20 19 1",
" 	c None",
".	c #39B54A",
"+	c #38B449",
"@	c #38B54A",
"#	c #39B449",
"$	c #34B54B",
"%	c #37B54A",
"&	c #F7941E",
"*	c #F6941E",
"=	c #FA931D",
"-	c #F6931D",
";	c #F7931D",
">	c #FB931D",
",	c #FC931C",
"'	c #FD921C",
")	c #BE1D2C",
"!	c #BF1E2D",
"~	c #BE1D2D",
"{	c #BF1E2C",
"  .+    .+.    ...    ++       ",
" ....  +..++  +..++  +..++     ",
"...++. ++..+. +.++. .....+     ",
"   ++. +. .+. .+ .+ ... ++ +.  ",
"   +.+.+. +.++.. +..++. .....  ",
"    +....  ++++   .+++  .+.+.  ",
"      @      #     $      %    ",
"   &*=    -;>   &&;,   -*;'    ",
"  -&&&-  -&---  -&&-- &&&&-    ",
"  -&&&-  &- -& -&-&-& -&-&&&   ",
"     &- &-- &- -&- -- -& &-& -&",
"     -&&&-& --&--  &&&&-  --&&&",
"      &---   -&&-   --&&  &--& ",
"                               ",
" )!)!   ~{!)  ~~{!   ~~!)      ",
"!)))!) !))!!  )!!)!  ))!))     ",
")! ))! !) ))) !) )! ))) )!     ",
"   !!) )! )))))) !!)))! !! )!  ",
"    !)!)! !)!)!) )!!!)  !)!)!  ",
"     !!)   )!!)   !!)    !))   "};
